<svg width="161" height="153" viewBox="0 0 161 153" fill="none" xmlns="http://www.w3.org/2000/svg">
<g clip-path="url(#clip0_1_74)">
<path d="M96.4 24.75C99.421 21.881 114.342 25.657 113.9 24.25C113.456 22.841 93.247 21.448 93.65 17C94.157 11.804 117.192 6.83901 116.15 4.50001C115.108 2.16101 97.595 3.09801 88.65 5.00001C84.221 5.77301 81.806 12.826 77.4 12.25C74.035 11.804 74.951 0.81401 73.15 2.50001C69.645 5.80501 67.94 15.015 66.9 21.5C66.239 25.642 69.447 30.025 68.15 33.75C66.757 37.73 62.583 38.89 59.5 43C48.64 56.791 36.897 70.204 26.65 84.3C19.722 93.882 12.876 103.519 8 114C4.294 121.987 -1.993 131.442 1 139.5C3.83 146.754 13.96 148.598 21.5 149.5C46.798 152.524 72.325 152.994 97.5 151.25C113.397 150.144 130.125 148.311 144 141C148.204 138.783 144.704 131.426 144.25 126.75C143.355 122.403 136.803 118.929 140 114.25C143.537 109.755 155.135 114.662 157.75 112.25C159.34 110.798 148.798 110.322 148.75 107C148.714 102.972 157.321 102.006 158.25 97.6C159.701 90.711 157.136 77.491 155.75 76.6C154.363 75.715 153.795 88.025 150.25 92.6C148.567 95.051 143.977 97.784 141.5 95.75C137.44 92.371 139.332 81.232 136.25 80.75C133.583 80.482 133.871 96.191 130 94.25C121.932 90.181 118 76.789 112.15 67.8C105.511 57.89 98.768 47.759 92.5 37.5C90.933 34.933 89.261 33.948 90.65 33.5C94.828 32.168 102.137 35.728 103.65 33.25C105.012 31.353 94.38 26.683 96.4 24.75Z" fill="black" stroke="black" stroke-linecap="round"/>
<path d="M70.5 33C52.262 47.75 40.483 69.638 27 89C18.216 101.079 8.492 112.938 3.75 127.25C1.839 133.019 2.367 143.055 8 145C26.778 151.482 47.897 149.847 67.5 149.25C91.704 148.513 117.311 149.553 139.75 141C145.54 138.793 141.465 129.839 137.75 122.5C122.891 93.145 108.279 64.144 89 38C84.18 31.464 75.468 28.99 70.5 33Z" fill="#F1DB20" stroke="black" stroke-linecap="round"/>
<path d="M133 135.75C126.746 140.278 118.373 141.038 110.75 142.25C101.797 143.675 91.905 141.945 82.75 143.75C80.46 144.202 79.71 147.763 82.5 148C93.66 148.948 106.187 146.917 118 146.25C120.954 146.083 121.986 145.323 124 145C125.084 144.82 125.926 145.103 126.75 145C129.685 144.518 132.801 144.395 135.25 143.25C138.018 141.956 142.206 140.675 142.5 137.625C143.012 132.331 139.793 122.965 137.25 122.5C134.865 122.064 136.752 133.032 133 135.75Z" fill="#C7B51B" stroke="#C7B51B" stroke-width="2" stroke-linecap="round"/>
<path d="M53.375 133C43.074 132.759 32.888 133.402 22.889 135.052C17.161 135.998 6.267 138.83 6.25 141C6.267 143.065 17.271 144.194 22.889 144.948C32.933 146.297 43.197 146.484 53.375 147C62.338 147.451 70.908 148.303 79.5 148C85.245 147.801 95.865 148.327 96.25 145.5C96.635 142.659 86.244 138.38 80.25 136.75C71.723 134.147 62.811 133.218 53.375 133Z" fill="white" stroke="white" stroke-width="2" stroke-linecap="round"/>
<path d="M55.75 144.25C44.964 144.123 34.186 143.207 23.415 143.019C19.911 142.959 16.496 142.241 13.5 143.5C12.469 143.962 11.26 145.636 14.75 146C28.224 148.547 42.007 150.335 55.75 150.75C69.738 151.172 83.931 151.174 97.75 149.25C101.187 148.775 100.389 145.171 99 144C96.648 142.046 92.602 143.042 89.335 143.019C78.18 142.948 66.958 144.123 55.75 144.25Z" fill="#C9CACB" stroke="#C9CACB" stroke-width="2" stroke-linecap="round"/>
<path d="M69.5 37.5C67.87 38.068 66.441 39.3 65.25 40.25C64.097 41.167 63.268 42.437 62.25 43.5C60.976 44.819 59.949 45.898 59 47.25C56.143 51.322 52.56 55.214 51.25 60C50.697 61.219 52.939 62.737 54.5 61.75C60.726 57.811 66.068 52.436 71 47C72.426 45.428 73.348 43.336 73.75 41.25C73.957 40.156 74.125 38.645 73.25 38C72.151 37.216 70.686 37.276 69.5 37.5Z" fill="#FDF394" stroke="#FDF394" stroke-width="2" stroke-linecap="round"/>
<path d="M42.5 107.75C39.757 105.465 38.9 100.684 35.5 99.5C31.03 97.96 25.699 97.827 22 100.25C18.481 102.411 17.124 107.349 17 111.25C16.906 113.955 21.701 115.843 20.75 118.5C19.382 122.302 13.899 123.101 11.75 126.5C10.999 127.258 12.845 128.154 14 128.25C17.213 128.532 20.345 127.001 23.75 127.25C24.879 127.333 25.453 128.693 26.5 129.25C30.172 131.441 33.653 133.891 37.75 135.75C40.052 136.797 42.531 138.237 45 138C48.57 137.714 52.419 136.955 55.25 134.5C58.507 131.782 61.863 127.76 61.75 123.75C61.785 119.826 54.231 114.156 55.75 113.75C57.337 113.327 64.43 121.197 69.75 121.5C75.445 121.821 83.18 120.315 86 115.25C88.936 109.95 87.096 102.339 83.5 97.75C80.395 93.668 73.906 92.883 69 93.25C65.521 93.515 62.233 96.177 60.25 99C57.819 102.09 58.563 106.753 56.5 110C55.726 111.198 53.662 111.009 52.25 110.75C50.341 110.398 48.814 109.063 47 108.5C45.644 108.011 43.775 108.605 42.5 107.75Z" fill="black" stroke="black" stroke-width="2" stroke-linecap="round"/>
<path d="M46.25 119.25C43.056 119.434 39.895 120.309 36.75 120.75C32.885 121.409 28.112 120.784 25.25 123.25C23.703 124.59 26.406 127.51 28 129C30.778 131.583 34.288 133.405 37.877 135.015C40.621 136.244 43.579 137.331 46.625 137.25C49.278 137.181 51.624 136.014 53.5 134.5C56.616 132.259 60.714 129.89 61.25 126.25C61.605 123.814 58.274 121.952 56 121C52.979 119.775 49.54 119.505 46.25 119.25Z" fill="#FFB200" stroke="black" stroke-linecap="round"/>
<path d="M72.5 95.75C68.431 95.75 64.743 97.137 62.073 99.377C59.403 101.617 57.75 104.711 57.75 108.125C57.75 111.539 59.403 114.633 62.073 116.873C64.743 119.113 68.431 120.5 72.5 120.5C76.569 120.5 80.257 119.113 82.927 116.873C85.597 114.633 87.25 111.539 87.25 108.125C87.25 104.711 85.597 101.617 82.927 99.377C80.257 97.137 76.569 95.75 72.5 95.75Z" fill="white" stroke="black"/>
<path d="M29.625 98.5C26.28 98.5 23.249 99.663 21.054 101.541C18.859 103.419 17.5 106.013 17.5 108.875C17.5 111.737 18.859 114.331 21.054 116.209C23.249 118.087 26.28 119.25 29.625 119.25C32.97 119.25 36.001 118.087 38.196 116.209C40.391 114.331 41.75 111.737 41.75 108.875C41.75 106.013 40.391 103.419 38.196 101.541C36.001 99.663 32.97 98.5 29.625 98.5Z" fill="white" stroke="black"/>
<path d="M45 108.75C41.278 108.739 37.863 110.712 34.573 112.058C31.454 113.334 28.151 114.546 25.5 116.5C20.906 119.647 9.676 126.529 13 127.25C19.515 128.654 34.722 122.42 45.25 121C48.716 120.535 52.342 120.344 55.75 121.25C58.541 122.007 62.972 128.315 62.5 126.75C61.682 124.033 56.496 116.062 52.25 111.75C50.342 109.807 47.549 108.63 45 108.75Z" fill="#FFB200" stroke="black" stroke-width="3" stroke-linecap="round"/>
<path d="M63.875 105.75C62.944 105.75 62.1 106.114 61.489 106.703C60.878 107.291 60.5 108.103 60.5 109C60.5 109.897 60.878 110.709 61.489 111.297C62.1 111.886 62.944 112.25 63.875 112.25C64.806 112.25 65.65 111.886 66.261 111.297C66.872 110.709 67.25 109.897 67.25 109C67.25 108.103 66.872 107.291 66.261 106.703C65.65 106.114 64.806 105.75 63.875 105.75Z" fill="black"/>
<path d="M22.75 106.5C21.991 106.5 21.304 106.794 20.806 107.269C20.308 107.745 20 108.401 20 109.125C20 109.849 20.308 110.505 20.806 110.981C21.304 111.456 21.991 111.75 22.75 111.75C23.509 111.75 24.196 111.456 24.694 110.981C25.192 110.505 25.5 109.849 25.5 109.125C25.5 108.401 25.192 107.745 24.694 107.269C24.196 106.794 23.509 106.5 22.75 106.5Z" fill="black"/>
<path d="M94 82.5C90.053 82.525 86.405 84.756 82.75 86.25C72.907 90.275 61.842 92.877 53 99.25C50.984 100.819 52.494 106.105 55.75 106C68.773 105.58 81.338 100.628 94 97.75C97.165 97.031 98.895 97.117 100.539 95.515C101.549 94.53 100.422 92.616 100 91.25C99.451 89.458 98.98 87.448 98 85.75C96.918 84.442 95.731 82.491 94 82.5Z" fill="#B33600"/>
<path d="M27 94.25C19.452 92.599 11.785 89.935 4.00002 90C2.04402 90.017 2.79302 92.667 2.50002 93.85C2.12202 95.439 0.787015 97.527 2.00002 98.25C6.59302 100.974 12.059 101.979 17.25 103.25C21.299 104.243 25.791 104.876 30.25 105.25C34.306 105.544 38.519 106.322 42.75 105.25C44.063 104.915 43.858 102.715 44 101.375C44.085 100.343 45.214 99.198 44 98.75C38.52 96.392 32.721 95.502 27 94.25Z" fill="#B33600"/>
</g>
<defs>
<clipPath id="clip0_1_74">
<rect width="161" height="153" fill="white" transform="matrix(-1 0 0 1 161 0)"/>
</clipPath>
</defs>
</svg>
