<svg width="161" height="153" viewBox="0 0 161 153" fill="none" xmlns="http://www.w3.org/2000/svg">
<g clip-path="url(#clip0_1_19)">
<path d="M64.6 24.75C61.579 21.881 46.658 25.657 47.1 24.25C47.544 22.841 67.753 21.448 67.35 17C66.843 11.804 43.808 6.839 44.85 4.5C45.892 2.161 63.405 3.098 72.35 5C76.779 5.773 79.194 12.826 83.6 12.25C86.965 11.804 86.049 0.814002 87.85 2.5C91.355 5.805 93.06 15.015 94.1 21.5C94.761 25.642 91.553 30.025 92.85 33.75C94.243 37.73 98.417 38.89 101.5 43C112.36 56.791 124.103 70.204 134.35 84.3C141.278 93.882 148.124 103.519 153 114C156.706 121.987 162.993 131.442 160 139.5C157.17 146.754 147.04 148.598 139.5 149.5C114.202 152.524 88.675 152.994 63.5 151.25C47.603 150.144 30.875 148.311 17 141C12.796 138.783 16.296 131.426 16.75 126.75C17.645 122.403 24.197 118.929 21 114.25C17.463 109.755 5.865 114.662 3.25 112.25C1.66 110.798 12.202 110.322 12.25 107C12.286 102.972 3.679 102.006 2.75 97.6C1.299 90.711 3.864 77.491 5.25 76.6C6.637 75.715 7.205 88.025 10.75 92.6C12.433 95.051 17.023 97.784 19.5 95.75C23.56 92.371 21.668 81.232 24.75 80.75C27.417 80.482 27.129 96.191 31 94.25C39.068 90.181 43 76.789 48.85 67.8C55.489 57.89 62.232 47.759 68.5 37.5C70.067 34.933 71.739 33.948 70.35 33.5C66.172 32.168 58.863 35.728 57.35 33.25C55.988 31.353 66.62 26.683 64.6 24.75Z" fill="black" stroke="black" stroke-linecap="round"/>
<path d="M90.5 33C108.738 47.75 120.517 69.638 134 89C142.784 101.079 152.508 112.938 157.25 127.25C159.161 133.019 158.633 143.055 153 145C134.222 151.482 113.103 149.847 93.5 149.25C69.296 148.513 43.689 149.553 21.25 141C15.46 138.793 19.535 129.839 23.25 122.5C38.109 93.145 52.721 64.144 72 38C76.82 31.464 85.532 28.99 90.5 33Z" fill="#F1DB20" stroke="black" stroke-linecap="round"/>
<path d="M28 135.75C34.254 140.278 42.627 141.038 50.25 142.25C59.203 143.675 69.095 141.945 78.25 143.75C80.54 144.202 81.29 147.763 78.5 148C67.34 148.948 54.813 146.917 43 146.25C40.046 146.083 39.014 145.323 37 145C35.916 144.82 35.074 145.103 34.25 145C31.315 144.518 28.199 144.395 25.75 143.25C22.982 141.956 18.794 140.675 18.5 137.625C17.988 132.331 21.207 122.965 23.75 122.5C26.135 122.064 24.248 133.032 28 135.75Z" fill="#C7B51B" stroke="#C7B51B" stroke-width="2" stroke-linecap="round"/>
<path d="M107.625 133C117.926 132.759 128.112 133.402 138.111 135.052C143.839 135.998 154.733 138.83 154.75 141C154.733 143.065 143.729 144.194 138.111 144.948C128.067 146.297 117.803 146.484 107.625 147C98.662 147.451 90.092 148.303 81.5 148C75.755 147.801 65.135 148.327 64.75 145.5C64.365 142.659 74.756 138.38 80.75 136.75C89.277 134.147 98.189 133.218 107.625 133Z" fill="white" stroke="white" stroke-width="2" stroke-linecap="round"/>
<path d="M105.25 144.25C116.036 144.123 126.814 143.207 137.585 143.019C141.089 142.959 144.504 142.241 147.5 143.5C148.531 143.962 149.74 145.636 146.25 146C132.776 148.547 118.993 150.335 105.25 150.75C91.262 151.172 77.069 151.174 63.25 149.25C59.813 148.775 60.611 145.171 62 144C64.352 142.046 68.398 143.042 71.665 143.019C82.82 142.948 94.042 144.123 105.25 144.25Z" fill="#C9CACB" stroke="#C9CACB" stroke-width="2" stroke-linecap="round"/>
<path d="M91.5 37.5C93.13 38.068 94.559 39.3 95.75 40.25C96.903 41.167 97.732 42.437 98.75 43.5C100.024 44.819 101.051 45.898 102 47.25C104.857 51.322 108.44 55.214 109.75 60C110.303 61.219 108.061 62.737 106.5 61.75C100.274 57.811 94.932 52.436 90 47C88.574 45.428 87.652 43.336 87.25 41.25C87.043 40.156 86.875 38.645 87.75 38C88.849 37.216 90.314 37.276 91.5 37.5Z" fill="#FDF394" stroke="#FDF394" stroke-width="2" stroke-linecap="round"/>
<path d="M118.5 107.75C121.243 105.465 122.1 100.684 125.5 99.5C129.97 97.96 135.301 97.827 139 100.25C142.519 102.411 143.876 107.349 144 111.25C144.094 113.955 139.299 115.843 140.25 118.5C141.618 122.302 147.101 123.101 149.25 126.5C150.001 127.258 148.155 128.154 147 128.25C143.787 128.532 140.655 127.001 137.25 127.25C136.121 127.333 135.547 128.693 134.5 129.25C130.828 131.441 127.347 133.891 123.25 135.75C120.948 136.797 118.469 138.237 116 138C112.43 137.714 108.581 136.955 105.75 134.5C102.493 131.782 99.137 127.76 99.25 123.75C99.215 119.826 106.769 114.156 105.25 113.75C103.663 113.327 96.57 121.197 91.25 121.5C85.555 121.821 77.82 120.315 75 115.25C72.064 109.95 73.904 102.339 77.5 97.75C80.605 93.668 87.094 92.883 92 93.25C95.479 93.515 98.767 96.177 100.75 99C103.181 102.09 102.437 106.753 104.5 110C105.274 111.198 107.338 111.009 108.75 110.75C110.659 110.398 112.186 109.063 114 108.5C115.356 108.011 117.225 108.605 118.5 107.75Z" fill="black" stroke="black" stroke-width="2" stroke-linecap="round"/>
<path d="M114.75 119.25C117.944 119.434 121.105 120.309 124.25 120.75C128.115 121.409 132.888 120.784 135.75 123.25C137.297 124.59 134.594 127.51 133 129C130.222 131.583 126.712 133.405 123.123 135.015C120.379 136.244 117.421 137.331 114.375 137.25C111.722 137.181 109.376 136.014 107.5 134.5C104.384 132.259 100.286 129.89 99.75 126.25C99.395 123.814 102.726 121.952 105 121C108.021 119.775 111.46 119.505 114.75 119.25Z" fill="#FFB200" stroke="black" stroke-linecap="round"/>
<path d="M88.5 95.75C92.569 95.75 96.257 97.137 98.927 99.377C101.597 101.617 103.25 104.711 103.25 108.125C103.25 111.539 101.597 114.633 98.927 116.873C96.257 119.113 92.569 120.5 88.5 120.5C84.431 120.5 80.743 119.113 78.073 116.873C75.403 114.633 73.75 111.539 73.75 108.125C73.75 104.711 75.403 101.617 78.073 99.377C80.743 97.137 84.431 95.75 88.5 95.75Z" fill="white" stroke="black"/>
<path d="M131.375 98.5C134.72 98.5 137.751 99.663 139.946 101.541C142.141 103.419 143.5 106.013 143.5 108.875C143.5 111.737 142.141 114.331 139.946 116.209C137.751 118.087 134.72 119.25 131.375 119.25C128.03 119.25 124.999 118.087 122.804 116.209C120.609 114.331 119.25 111.737 119.25 108.875C119.25 106.013 120.609 103.419 122.804 101.541C124.999 99.663 128.03 98.5 131.375 98.5Z" fill="white" stroke="black"/>
<path d="M116 108.75C119.722 108.739 123.137 110.712 126.427 112.058C129.546 113.334 132.849 114.546 135.5 116.5C140.094 119.647 151.324 126.529 148 127.25C141.485 128.654 126.278 122.42 115.75 121C112.284 120.535 108.658 120.344 105.25 121.25C102.459 122.007 98.028 128.315 98.5 126.75C99.318 124.033 104.504 116.062 108.75 111.75C110.658 109.807 113.451 108.63 116 108.75Z" fill="#FFB200" stroke="black" stroke-width="3" stroke-linecap="round"/>
<path d="M97.125 105.75C98.056 105.75 98.9 106.114 99.511 106.703C100.122 107.291 100.5 108.103 100.5 109C100.5 109.897 100.122 110.709 99.511 111.297C98.9 111.886 98.056 112.25 97.125 112.25C96.194 112.25 95.35 111.886 94.739 111.297C94.128 110.709 93.75 109.897 93.75 109C93.75 108.103 94.128 107.291 94.739 106.703C95.35 106.114 96.194 105.75 97.125 105.75Z" fill="black"/>
<path d="M138.25 106.5C139.009 106.5 139.696 106.794 140.194 107.269C140.692 107.745 141 108.401 141 109.125C141 109.849 140.692 110.505 140.194 110.981C139.696 111.456 139.009 111.75 138.25 111.75C137.491 111.75 136.804 111.456 136.306 110.981C135.808 110.505 135.5 109.849 135.5 109.125C135.5 108.401 135.808 107.745 136.306 107.269C136.804 106.794 137.491 106.5 138.25 106.5Z" fill="black"/>
<path d="M67 82.5C70.947 82.525 74.595 84.756 78.25 86.25C88.093 90.275 99.158 92.877 108 99.25C110.016 100.819 108.506 106.105 105.25 106C92.227 105.58 79.662 100.628 67 97.75C63.835 97.031 62.105 97.117 60.461 95.515C59.451 94.53 60.578 92.616 61 91.25C61.549 89.458 62.02 87.448 63 85.75C64.082 84.442 65.269 82.491 67 82.5Z" fill="#B33600"/>
<path d="M134 94.25C141.548 92.599 149.215 89.935 157 90C158.956 90.017 158.207 92.667 158.5 93.85C158.878 95.439 160.213 97.527 159 98.25C154.407 100.974 148.941 101.979 143.75 103.25C139.701 104.243 135.209 104.876 130.75 105.25C126.694 105.544 122.481 106.322 118.25 105.25C116.937 104.915 117.142 102.715 117 101.375C116.915 100.343 115.786 99.198 117 98.75C122.48 96.392 128.279 95.502 134 94.25Z" fill="#B33600"/>
</g>
<defs>
<clipPath id="clip0_1_19">
<rect width="161" height="153" fill="white"/>
</clipPath>
</defs>
</svg>
