<svg width="161" height="153" viewBox="0 0 161 153" fill="none" xmlns="http://www.w3.org/2000/svg">
<g clip-path="url(#clip0_1_38)">
<path d="M96.4 128.25C99.421 131.119 114.342 127.343 113.9 128.75C113.456 130.159 93.247 131.552 93.65 136C94.157 141.196 117.192 146.161 116.15 148.5C115.108 150.839 97.595 149.902 88.65 148C84.221 147.227 81.806 140.174 77.4 140.75C74.035 141.196 74.951 152.186 73.15 150.5C69.645 147.195 67.94 137.985 66.9 131.5C66.239 127.358 69.447 122.975 68.15 119.25C66.757 115.27 62.583 114.11 59.5 110C48.64 96.209 36.897 82.796 26.65 68.7C19.722 59.118 12.876 49.481 8 39C4.294 31.013 -1.993 21.558 1 13.5C3.83 6.24598 13.96 4.40198 21.5 3.49998C46.798 0.475985 72.325 0.00598478 97.5 1.74998C113.397 2.85598 130.125 4.68898 144 12C148.204 14.217 144.704 21.574 144.25 26.25C143.355 30.597 136.803 34.071 140 38.75C143.537 43.245 155.135 38.338 157.75 40.75C159.34 42.202 148.798 42.678 148.75 46C148.714 50.028 157.321 50.994 158.25 55.4C159.701 62.289 157.136 75.509 155.75 76.4C154.363 77.285 153.795 64.975 150.25 60.4C148.567 57.949 143.977 55.216 141.5 57.25C137.44 60.629 139.332 71.768 136.25 72.25C133.583 72.518 133.871 56.809 130 58.75C121.932 62.819 118 76.211 112.15 85.2C105.511 95.11 98.768 105.241 92.5 115.5C90.933 118.067 89.261 119.052 90.65 119.5C94.828 120.832 102.137 117.272 103.65 119.75C105.012 121.647 94.38 126.317 96.4 128.25Z" fill="black" stroke="black" stroke-linecap="round"/>
<path d="M70.5 120C52.262 105.25 40.483 83.362 27 64C18.216 51.921 8.492 40.062 3.75 25.75C1.839 19.981 2.367 9.94501 8 8.00001C26.778 1.51801 47.897 3.15301 67.5 3.75001C91.704 4.48701 117.311 3.44701 139.75 12C145.54 14.207 141.465 23.161 137.75 30.5C122.891 59.855 108.279 88.856 89 115C84.18 121.536 75.468 124.01 70.5 120Z" fill="#F1DB20" stroke="black" stroke-linecap="round"/>
<path d="M133 17.25C126.746 12.722 118.373 11.962 110.75 10.75C101.797 9.32501 91.905 11.055 82.75 9.25001C80.46 8.79801 79.71 5.23701 82.5 5.00001C93.66 4.05201 106.187 6.08301 118 6.75001C120.954 6.91701 121.986 7.67701 124 8.00001C125.084 8.18001 125.926 7.89701 126.75 8.00001C129.685 8.48201 132.801 8.60501 135.25 9.75001C138.018 11.044 142.206 12.325 142.5 15.375C143.012 20.669 139.793 30.035 137.25 30.5C134.865 30.936 136.752 19.968 133 17.25Z" fill="#C7B51B" stroke="#C7B51B" stroke-width="2" stroke-linecap="round"/>
<path d="M53.375 20C43.074 20.241 32.888 19.598 22.889 17.948C17.161 17.002 6.267 14.17 6.25 12C6.267 9.935 17.271 8.806 22.889 8.052C32.933 6.703 43.197 6.516 53.375 6C62.338 5.549 70.908 4.697 79.5 5C85.245 5.199 95.865 4.673 96.25 7.5C96.635 10.341 86.244 14.62 80.25 16.25C71.723 18.853 62.811 19.782 53.375 20Z" fill="white" stroke="white" stroke-width="2" stroke-linecap="round"/>
<path d="M55.75 8.75C44.964 8.877 34.186 9.793 23.415 9.981C19.911 10.041 16.496 10.759 13.5 9.5C12.469 9.038 11.26 7.364 14.75 7C28.224 4.453 42.007 2.665 55.75 2.25C69.738 1.828 83.931 1.826 97.75 3.75C101.187 4.225 100.389 7.829 99 9C96.648 10.954 92.602 9.958 89.335 9.981C78.18 10.052 66.958 8.877 55.75 8.75Z" fill="#C9CACB" stroke="#C9CACB" stroke-width="2" stroke-linecap="round"/>
<path d="M69.5 115.5C67.87 114.932 66.441 113.7 65.25 112.75C64.097 111.833 63.268 110.563 62.25 109.5C60.976 108.181 59.949 107.102 59 105.75C56.143 101.678 52.56 97.786 51.25 93C50.697 91.781 52.939 90.263 54.5 91.25C60.726 95.189 66.068 100.564 71 106C72.426 107.572 73.348 109.664 73.75 111.75C73.957 112.844 74.125 114.355 73.25 115C72.151 115.784 70.686 115.724 69.5 115.5Z" fill="#FDF394" stroke="#FDF394" stroke-width="2" stroke-linecap="round"/>
<path d="M42.5 45.25C39.757 47.535 38.9 52.316 35.5 53.5C31.03 55.04 25.699 55.173 22 52.75C18.481 50.589 17.124 45.651 17 41.75C16.906 39.045 21.701 37.157 20.75 34.5C19.382 30.698 13.899 29.899 11.75 26.5C10.999 25.742 12.845 24.846 14 24.75C17.213 24.468 20.345 25.999 23.75 25.75C24.879 25.667 25.453 24.307 26.5 23.75C30.172 21.559 33.653 19.109 37.75 17.25C40.052 16.203 42.531 14.763 45 15C48.57 15.286 52.419 16.045 55.25 18.5C58.507 21.218 61.863 25.24 61.75 29.25C61.785 33.174 54.231 38.844 55.75 39.25C57.337 39.673 64.43 31.803 69.75 31.5C75.445 31.179 83.18 32.685 86 37.75C88.936 43.05 87.096 50.661 83.5 55.25C80.395 59.332 73.906 60.117 69 59.75C65.521 59.485 62.233 56.823 60.25 54C57.819 50.91 58.563 46.247 56.5 43C55.726 41.802 53.662 41.991 52.25 42.25C50.341 42.602 48.814 43.937 47 44.5C45.644 44.989 43.775 44.395 42.5 45.25Z" fill="black" stroke="black" stroke-width="2" stroke-linecap="round"/>
<path d="M46.25 33.75C43.056 33.566 39.895 32.691 36.75 32.25C32.885 31.591 28.112 32.216 25.25 29.75C23.703 28.41 26.406 25.49 28 24C30.778 21.417 34.288 19.595 37.877 17.985C40.621 16.756 43.579 15.669 46.625 15.75C49.278 15.819 51.624 16.986 53.5 18.5C56.616 20.741 60.714 23.11 61.25 26.75C61.605 29.186 58.274 31.048 56 32C52.979 33.225 49.54 33.495 46.25 33.75Z" fill="#FFB200" stroke="black" stroke-linecap="round"/>
<path d="M72.5 57.25C68.431 57.25 64.743 55.863 62.073 53.623C59.403 51.383 57.75 48.289 57.75 44.875C57.75 41.461 59.403 38.367 62.073 36.127C64.743 33.887 68.431 32.5 72.5 32.5C76.569 32.5 80.257 33.887 82.927 36.127C85.597 38.367 87.25 41.461 87.25 44.875C87.25 48.289 85.597 51.383 82.927 53.623C80.257 55.863 76.569 57.25 72.5 57.25Z" fill="white" stroke="black"/>
<path d="M29.625 54.5C26.28 54.5 23.249 53.337 21.054 51.459C18.859 49.581 17.5 46.987 17.5 44.125C17.5 41.263 18.859 38.669 21.054 36.791C23.249 34.913 26.28 33.75 29.625 33.75C32.97 33.75 36.001 34.913 38.196 36.791C40.391 38.669 41.75 41.263 41.75 44.125C41.75 46.987 40.391 49.581 38.196 51.459C36.001 53.337 32.97 54.5 29.625 54.5Z" fill="white" stroke="black"/>
<path d="M45 44.25C41.278 44.261 37.863 42.288 34.573 40.942C31.454 39.666 28.151 38.454 25.5 36.5C20.906 33.353 9.676 26.471 13 25.75C19.515 24.346 34.722 30.58 45.25 32C48.716 32.465 52.342 32.656 55.75 31.75C58.541 30.993 62.972 24.685 62.5 26.25C61.682 28.967 56.496 36.938 52.25 41.25C50.342 43.193 47.549 44.37 45 44.25Z" fill="#FFB200" stroke="black" stroke-width="3" stroke-linecap="round"/>
<path d="M63.875 47.25C62.944 47.25 62.1 46.886 61.489 46.297C60.878 45.709 60.5 44.897 60.5 44C60.5 43.103 60.878 42.291 61.489 41.703C62.1 41.114 62.944 40.75 63.875 40.75C64.806 40.75 65.65 41.114 66.261 41.703C66.872 42.291 67.25 43.103 67.25 44C67.25 44.897 66.872 45.709 66.261 46.297C65.65 46.886 64.806 47.25 63.875 47.25Z" fill="black"/>
<path d="M22.75 46.5C21.991 46.5 21.304 46.206 20.806 45.731C20.308 45.255 20 44.599 20 43.875C20 43.151 20.308 42.495 20.806 42.019C21.304 41.544 21.991 41.25 22.75 41.25C23.509 41.25 24.196 41.544 24.694 42.019C25.192 42.495 25.5 43.151 25.5 43.875C25.5 44.599 25.192 45.255 24.694 45.731C24.196 46.206 23.509 46.5 22.75 46.5Z" fill="black"/>
<path d="M94 70.5C90.053 70.475 86.405 68.244 82.75 66.75C72.907 62.725 61.842 60.123 53 53.75C50.984 52.181 52.494 46.895 55.75 47C68.773 47.42 81.338 52.372 94 55.25C97.165 55.969 98.895 55.883 100.539 57.485C101.549 58.47 100.422 60.384 100 61.75C99.451 63.542 98.98 65.552 98 67.25C96.918 68.558 95.731 70.509 94 70.5Z" fill="#B33600"/>
<path d="M27 58.75C19.452 60.401 11.785 63.065 4.00002 63C2.04402 62.983 2.79302 60.333 2.50002 59.15C2.12202 57.561 0.787015 55.473 2.00002 54.75C6.59302 52.026 12.059 51.021 17.25 49.75C21.299 48.757 25.791 48.124 30.25 47.75C34.306 47.456 38.519 46.678 42.75 47.75C44.063 48.085 43.858 50.285 44 51.625C44.085 52.657 45.214 53.802 44 54.25C38.52 56.608 32.721 57.498 27 58.75Z" fill="#B33600"/>
</g>
<defs>
<clipPath id="clip0_1_38">
<rect width="161" height="153" fill="white" transform="translate(161 153) rotate(-180)"/>
</clipPath>
</defs>
</svg>
